<?xml version="1.0" encoding="UTF-8"?>
<svg xmlns="http://www.w3.org/2000/svg" width="760" height="460" viewBox="0 0 760 460" font-family="system-ui, -apple-system, 'Segoe UI', Roboto, sans-serif">
<rect width="760" height="460" fill="#fcfcfb"/>
<text x="32.0" y="40.0" font-size="20" fill="#0b0b0b" text-anchor="start" font-weight="600">Gráfico 2 — Speedup</text>
<text x="32.0" y="64.0" font-size="13" fill="#52514e" text-anchor="start" font-weight="normal">100000 carros, vias de 100000 posições, semáforo de 30 iterações, 3000 iterações — média das execuções</text>
<rect x="32" y="82" width="12" height="12" rx="3" fill="#2a78d6"/>
<text x="50.0" y="92.0" font-size="13" fill="#52514e" text-anchor="start" font-weight="normal">Processos</text>
<rect x="146" y="82" width="12" height="12" rx="3" fill="#eb6834"/>
<text x="164.0" y="92.0" font-size="13" fill="#52514e" text-anchor="start" font-weight="normal">Threads</text>
<line x1="96" x2="610" y1="390.0" y2="390.0" stroke="#c3c2b7" stroke-width="1"/>
<text x="88.0" y="394.0" font-size="12" fill="#898781" text-anchor="end" font-weight="normal">0</text>
<line x1="96" x2="610" y1="355.0" y2="355.0" stroke="#e1e0d9" stroke-width="1"/>
<text x="88.0" y="359.0" font-size="12" fill="#898781" text-anchor="end" font-weight="normal">1</text>
<line x1="96" x2="610" y1="320.0" y2="320.0" stroke="#e1e0d9" stroke-width="1"/>
<text x="88.0" y="324.0" font-size="12" fill="#898781" text-anchor="end" font-weight="normal">2</text>
<line x1="96" x2="610" y1="285.0" y2="285.0" stroke="#e1e0d9" stroke-width="1"/>
<text x="88.0" y="289.0" font-size="12" fill="#898781" text-anchor="end" font-weight="normal">3</text>
<line x1="96" x2="610" y1="250.0" y2="250.0" stroke="#e1e0d9" stroke-width="1"/>
<text x="88.0" y="254.0" font-size="12" fill="#898781" text-anchor="end" font-weight="normal">4</text>
<line x1="96" x2="610" y1="215.0" y2="215.0" stroke="#e1e0d9" stroke-width="1"/>
<text x="88.0" y="219.0" font-size="12" fill="#898781" text-anchor="end" font-weight="normal">5</text>
<line x1="96" x2="610" y1="180.0" y2="180.0" stroke="#e1e0d9" stroke-width="1"/>
<text x="88.0" y="184.0" font-size="12" fill="#898781" text-anchor="end" font-weight="normal">6</text>
<line x1="96" x2="610" y1="145.0" y2="145.0" stroke="#e1e0d9" stroke-width="1"/>
<text x="88.0" y="149.0" font-size="12" fill="#898781" text-anchor="end" font-weight="normal">7</text>
<line x1="96" x2="610" y1="110.0" y2="110.0" stroke="#e1e0d9" stroke-width="1"/>
<text x="88.0" y="114.0" font-size="12" fill="#898781" text-anchor="end" font-weight="normal">8</text>
<text transform="translate(50,250.0) rotate(-90)" font-size="12" fill="#52514e" text-anchor="middle">Speedup</text>
<text x="160.2" y="410.0" font-size="12" fill="#52514e" text-anchor="middle" font-weight="normal">1</text>
<text x="224.5" y="410.0" font-size="12" fill="#52514e" text-anchor="middle" font-weight="normal">2</text>
<text x="353.0" y="410.0" font-size="12" fill="#52514e" text-anchor="middle" font-weight="normal">4</text>
<text x="610.0" y="410.0" font-size="12" fill="#52514e" text-anchor="middle" font-weight="normal">8</text>
<line x1="160.2" y1="355.0" x2="610.0" y2="110.0" stroke="#898781" stroke-width="1.5"/>
<text x="618.0" y="114.0" font-size="12" fill="#898781" text-anchor="start" font-weight="normal">Ideal (linear)</text>
<polyline points="160.2,355.6 224.5,336.0 353.0,302.7 610.0,279.8" fill="none" stroke="#eb6834" stroke-width="2" stroke-linejoin="round"/>
<rect x="155.8" y="351.1" width="9" height="9" rx="2" fill="#eb6834" stroke="#fcfcfb" stroke-width="2"/>
<rect x="220.0" y="331.5" width="9" height="9" rx="2" fill="#eb6834" stroke="#fcfcfb" stroke-width="2"/>
<rect x="348.5" y="298.2" width="9" height="9" rx="2" fill="#eb6834" stroke="#fcfcfb" stroke-width="2"/>
<rect x="605.5" y="275.3" width="9" height="9" rx="2" fill="#eb6834" stroke="#fcfcfb" stroke-width="2"/>
<polyline points="160.2,355.4 224.5,335.9 353.0,301.8 610.0,280.5" fill="none" stroke="#2a78d6" stroke-width="2" stroke-linejoin="round"/>
<circle cx="160.2" cy="355.4" r="8" fill="none" stroke="#2a78d6" stroke-width="2"/>
<circle cx="224.5" cy="335.9" r="8" fill="none" stroke="#2a78d6" stroke-width="2"/>
<circle cx="353.0" cy="301.8" r="8" fill="none" stroke="#2a78d6" stroke-width="2"/>
<circle cx="610.0" cy="280.5" r="8" fill="none" stroke="#2a78d6" stroke-width="2"/>
<text x="622.0" y="270.8" font-size="12" fill="#0b0b0b" text-anchor="start" font-weight="normal">Threads 3,15×</text>
<text x="622.0" y="297.5" font-size="12" fill="#0b0b0b" text-anchor="start" font-weight="normal">Processos 3,13×</text>
<text x="353.0" y="434.0" font-size="12" fill="#52514e" text-anchor="middle" font-weight="normal">Trabalhadores (processos ou threads)</text>
</svg>